<!-- react.svg -->
<svg xmlns="http://www.w3.org/2000/svg" viewBox="0 0 841.9 595.3" width="200" height="200">
  <g fill="#61DAFB">
    <circle cx="420.9" cy="296.5" r="45.7"/>
    <path d="M520.5 78.1c-58.4-34.1-131.7-36-192.3-5.5-61 30.6-102.1 87.2-110.5 153.1-8.4 65.9 18.6 130.3 70.7 176.6 52.1 46.3 122.6 67.3 190.2 58.8 67.5-8.5 126.3-49.5 161.6-111.4 35.2-61.9 34.6-136.4-1.5-198.5-36.1-62.1-104.7-101.9-177.2-105.6-72.5-3.7-142.4 30.2-185.2 90.8-42.8 60.6-49.2 139.5-16.4 204.1 32.8 64.6 99.6 108.1 171.5 111.5 71.9 3.4 143.3-34.3 184.8-98.6s47.4-146.2 5.2-211.6z"/>
  </g>
</svg>
